<?xml version="1.0" encoding="iso-8859-1"?>
<!-- Generator: Adobe Illustrator 18.0.0, SVG Export Plug-In . SVG Version: 6.00 Build 0)  -->
<!DOCTYPE svg PUBLIC "-//W3C//DTD SVG 1.1//EN" "http://www.w3.org/Graphics/SVG/1.1/DTD/svg11.dtd">
<svg version="1.1" id="Capa_1" xmlns="http://www.w3.org/2000/svg" xmlns:xlink="http://www.w3.org/1999/xlink" x="0px" y="0px"
	 viewBox="0 0 372 372" style="enable-background:new 0 0 372 372;" xml:space="preserve">
<g>
	<path d="M233.159,149.696c23.901,0,43.346-19.445,43.346-43.346s-19.444-43.347-43.346-43.347s-43.347,19.445-43.347,43.347
		S209.258,149.696,233.159,149.696z M233.159,83.003c12.873,0,23.346,10.473,23.346,23.347c0,12.873-10.473,23.346-23.346,23.346
		s-23.347-10.473-23.347-23.346C209.813,93.477,220.286,83.003,233.159,83.003z"/>
	<path d="M186,0C83.439,0,0,83.439,0,186c0,32.194,8.225,62.502,22.68,88.938c0.286,0.684,0.651,1.324,1.075,1.921
		C55.648,333.586,116.418,372,186,372c102.561,0,186-83.439,186-186S288.561,0,186,0z M186,20
		c85.566,0,156.21,65.076,165.059,148.333H168.396c-12.476-14.882-29.879-23.159-47.054-25.57v-2.899c0-5.523-4.478-10-10-10
		s-10,4.477-10,10v2.725c-17.596,2.166-35.572,10.483-48.367,25.743H20.941C29.79,85.076,100.434,20,186,20z M160.73,193.433H60.641
		c10.204-22.949,32.322-31.43,50.045-31.43S150.526,170.484,160.73,193.433z M20.03,188.333h21.097
		c-1.606,4.051-2.945,8.368-3.943,12.988c-0.639,2.955,0.094,6.04,1.992,8.392s4.76,3.72,7.782,3.72h54.384v47.647H37.975
		C26.818,239.172,20.392,214.473,20.03,188.333z M186,352c-56.192,0-105.945-28.071-135.993-70.92h51.335v13.586h-2.243
		c-5.522,0-10,4.477-10,10s4.478,10,10,10h100.666c5.522,0,10-4.477,10-10s-4.478-10-10-10h-78.423V281.08h200.651
		C291.945,323.929,242.192,352,186,352z M265.37,216.262h83.857c-0.373,2.015-0.783,4.016-1.228,6.004h-38.552
		c-5.522,0-10,4.477-10,10s4.478,10,10,10h32.73c-2.337,6.466-5.061,12.747-8.151,18.814H121.342v-47.647h53.07
		c3.022,0,5.884-1.367,7.782-3.72c1.898-2.352,2.631-5.437,1.992-8.392c-0.998-4.62-2.337-8.937-3.943-12.988H351.97
		c-0.037,2.658-0.136,5.301-0.297,7.928H265.37c-5.522,0-10,4.477-10,10S259.848,216.262,265.37,216.262z"/>
</g>
<g>
</g>
<g>
</g>
<g>
</g>
<g>
</g>
<g>
</g>
<g>
</g>
<g>
</g>
<g>
</g>
<g>
</g>
<g>
</g>
<g>
</g>
<g>
</g>
<g>
</g>
<g>
</g>
<g>
</g>
</svg>
